# This file uses centimeters as units for non-parametric coordinates.

mtllib mesh_cubes_consolidated.mtl
g default
v 0.500000 0.866025 0.000000
v 0.387628 2.085604 -0.707107
v 1.000000 1.732051 0.000000
v 1.000000 1.732051 -1.414214
v 1.612372 1.378497 -0.707107
v 0.500000 0.866025 -1.414214
v 1.112372 0.512472 -0.707107
v 0.724745 -1.573132 1.414214
v 0.612372 -0.353553 0.707107
v 1.224745 -0.707107 1.414214
v 1.224745 -0.707107 0.000000
v 1.837117 -1.060660 0.707107
v 0.724745 -1.573132 0.000000
v 1.337117 -1.926686 0.707107
v 0.387628 2.085604 -2.121320
v 1.000000 1.732051 -2.828427
v 1.612372 1.378497 -2.121320
v 0.500000 0.866025 -2.828427
v 1.112372 0.512472 -2.121320
v 0.500000 0.866025 2.828427
v 0.387628 2.085604 2.121320
v 1.000000 1.732051 2.828427
v 1.000000 1.732051 1.414214
v 1.612372 1.378497 2.121320
v 0.500000 0.866025 1.414214
v 1.112372 0.512472 2.121320
v 0.612372 -0.353553 -0.707107
v 1.224745 -0.707107 -1.414214
v 1.837117 -1.060660 -0.707107
v 0.724745 -1.573132 -1.414214
v 1.337117 -1.926686 -0.707107
v 1.724745 0.158919 -1.414214
v 0.612372 -0.353553 -2.121320
v 0.387628 2.085604 0.707107
v 1.612372 1.378497 0.707107
v 1.112372 0.512472 0.707107
v 1.724745 0.158919 0.000000
v 0.612372 -0.353553 2.121320
v 1.724745 0.158919 1.414214
v 0.275255 3.305183 1.414214
v 0.887628 2.951630 2.121320
v 0.887628 2.951630 0.707107
v 1.500000 2.598076 1.414214
v 0.275255 3.305183 -1.414214
v 0.887628 2.951630 -0.707107
v 0.887628 2.951630 -2.121320
v 1.500000 2.598076 -1.414214
v 0.275255 3.305183 0.000000
v 1.500000 2.598076 0.000000
vt 0.625000 0.000000
vt 0.375000 0.250000
vt 0.625000 0.250000
vt 0.375000 0.500000
vt 0.625000 0.500000
vt 0.375000 0.750000
vt 0.625000 0.750000
vt 0.875000 0.000000
vt 0.875000 0.250000
vt 0.375000 0.250000
vt 0.625000 0.250000
vt 0.625000 0.500000
vt 0.375000 0.500000
vt 0.625000 0.750000
vt 0.375000 0.750000
vt 0.625000 0.000000
vt 0.875000 0.000000
vt 0.875000 0.250000
vt 0.375000 0.250000
vt 0.625000 0.250000
vt 0.625000 0.500000
vt 0.375000 0.500000
vt 0.625000 0.750000
vt 0.375000 0.750000
vt 0.625000 0.000000
vt 0.875000 0.000000
vt 0.875000 0.250000
vt 0.375000 0.250000
vt 0.625000 0.250000
vt 0.625000 0.500000
vt 0.375000 0.500000
vt 0.625000 0.750000
vt 0.375000 0.750000
vt 0.625000 0.000000
vt 0.875000 0.000000
vt 0.875000 0.250000
vt 0.375000 0.250000
vt 0.625000 0.250000
vt 0.625000 0.500000
vt 0.375000 0.500000
vt 0.625000 0.750000
vt 0.375000 0.750000
vt 0.625000 0.000000
vt 0.875000 0.000000
vt 0.875000 0.250000
vt 0.375000 0.250000
vt 0.625000 0.250000
vt 0.625000 0.500000
vt 0.375000 0.500000
vt 0.625000 0.750000
vt 0.375000 0.750000
vt 0.625000 0.000000
vt 0.875000 0.000000
vt 0.875000 0.250000
vt 0.375000 0.250000
vt 0.625000 0.250000
vt 0.625000 0.500000
vt 0.375000 0.500000
vt 0.625000 0.750000
vt 0.375000 0.750000
vt 0.625000 0.000000
vt 0.875000 0.000000
vt 0.875000 0.250000
vt 0.375000 0.250000
vt 0.625000 0.250000
vt 0.625000 0.500000
vt 0.375000 0.500000
vt 0.625000 0.750000
vt 0.375000 0.750000
vt 0.625000 0.000000
vt 0.875000 0.000000
vt 0.875000 0.250000
vt 0.375000 0.250000
vt 0.625000 0.250000
vt 0.625000 0.500000
vt 0.375000 0.500000
vt 0.625000 0.750000
vt 0.375000 0.750000
vt 0.625000 0.000000
vt 0.875000 0.000000
vt 0.875000 0.250000
vt 0.375000 0.250000
vt 0.625000 0.250000
vt 0.625000 0.500000
vt 0.375000 0.500000
vt 0.625000 0.750000
vt 0.375000 0.750000
vt 0.625000 0.000000
vt 0.875000 0.000000
vt 0.875000 0.250000
vt 0.375000 0.250000
vt 0.625000 0.250000
vt 0.625000 0.500000
vt 0.375000 0.500000
vt 0.625000 0.750000
vt 0.375000 0.750000
vt 0.625000 0.000000
vt 0.875000 0.000000
vt 0.875000 0.250000
vt 0.375000 0.250000
vt 0.625000 0.250000
vt 0.625000 0.500000
vt 0.375000 0.500000
vt 0.625000 0.750000
vt 0.375000 0.750000
vt 0.625000 0.000000
vt 0.875000 0.000000
vt 0.875000 0.250000
vn 0.500000 0.866025 0.000000
vn 0.500000 0.866025 0.000000
vn 0.500000 0.866025 0.000000
vn 0.500000 0.866025 0.000000
vn 0.612372 -0.353553 -0.707107
vn 0.612372 -0.353553 -0.707107
vn 0.612372 -0.353553 -0.707107
vn 0.612372 -0.353553 -0.707107
vn 0.612372 -0.353553 0.707107
vn 0.612372 -0.353553 0.707107
vn 0.612372 -0.353553 0.707107
vn 0.612372 -0.353553 0.707107
vn 0.500000 0.866026 0.000000
vn 0.500000 0.866026 0.000000
vn 0.500000 0.866026 0.000000
vn 0.500000 0.866026 0.000000
vn 0.612373 -0.353553 -0.707107
vn 0.612373 -0.353553 -0.707107
vn 0.612373 -0.353553 -0.707107
vn 0.612373 -0.353553 -0.707107
vn 0.612372 -0.353553 0.707107
vn 0.612372 -0.353553 0.707107
vn 0.612372 -0.353553 0.707107
vn 0.612373 -0.353553 0.707107
vn 0.500000 0.866025 0.000000
vn 0.500000 0.866025 0.000000
vn 0.500000 0.866025 0.000000
vn 0.500000 0.866025 0.000000
vn 0.612372 -0.353553 -0.707107
vn 0.612372 -0.353553 -0.707107
vn 0.612372 -0.353553 -0.707107
vn 0.612372 -0.353553 -0.707107
vn 0.612372 -0.353553 0.707107
vn 0.612372 -0.353553 0.707107
vn 0.612372 -0.353553 0.707107
vn 0.612372 -0.353553 0.707107
vn 0.500000 0.866025 0.000000
vn 0.500000 0.866025 0.000000
vn 0.500000 0.866025 0.000000
vn 0.500000 0.866025 0.000000
vn 0.612372 -0.353553 -0.707107
vn 0.612372 -0.353553 -0.707107
vn 0.612372 -0.353553 -0.707107
vn 0.612372 -0.353553 -0.707107
vn 0.612373 -0.353553 0.707107
vn 0.612373 -0.353553 0.707107
vn 0.612373 -0.353553 0.707107
vn 0.612373 -0.353553 0.707107
vn 0.500000 0.866025 0.000000
vn 0.500000 0.866025 0.000000
vn 0.500000 0.866025 0.000000
vn 0.500000 0.866025 0.000000
vn 0.612373 -0.353553 -0.707107
vn 0.612373 -0.353553 -0.707107
vn 0.612373 -0.353553 -0.707107
vn 0.612373 -0.353553 -0.707107
vn 0.612373 -0.353553 0.707107
vn 0.612372 -0.353553 0.707107
vn 0.612372 -0.353553 0.707107
vn 0.612373 -0.353553 0.707107
vn 0.500000 0.866025 -0.000000
vn 0.500000 0.866025 -0.000000
vn 0.500000 0.866025 -0.000000
vn 0.500000 0.866025 -0.000000
vn 0.612372 -0.353553 -0.707107
vn 0.612372 -0.353553 -0.707107
vn 0.612372 -0.353553 -0.707107
vn 0.612372 -0.353553 -0.707107
vn 0.612372 -0.353553 0.707107
vn 0.612372 -0.353553 0.707107
vn 0.612372 -0.353553 0.707107
vn 0.612372 -0.353553 0.707107
vn 0.500000 0.866025 -0.000000
vn 0.500000 0.866025 -0.000000
vn 0.500000 0.866025 -0.000000
vn 0.500000 0.866025 -0.000000
vn 0.612372 -0.353553 -0.707107
vn 0.612372 -0.353553 -0.707107
vn 0.612372 -0.353553 -0.707107
vn 0.612372 -0.353553 -0.707107
vn 0.612372 -0.353553 0.707107
vn 0.612372 -0.353553 0.707107
vn 0.612372 -0.353553 0.707107
vn 0.612372 -0.353553 0.707107
vn 0.500000 0.866025 -0.000000
vn 0.500000 0.866025 -0.000000
vn 0.500000 0.866025 -0.000000
vn 0.500000 0.866025 -0.000000
vn 0.612372 -0.353553 -0.707107
vn 0.612372 -0.353553 -0.707107
vn 0.612372 -0.353553 -0.707107
vn 0.612372 -0.353553 -0.707107
vn 0.612372 -0.353553 0.707107
vn 0.612372 -0.353553 0.707107
vn 0.612372 -0.353553 0.707107
vn 0.612372 -0.353553 0.707107
vn 0.500000 0.866025 -0.000000
vn 0.500000 0.866025 -0.000000
vn 0.500000 0.866025 -0.000000
vn 0.500000 0.866025 -0.000000
vn 0.612372 -0.353553 -0.707107
vn 0.612372 -0.353553 -0.707107
vn 0.612372 -0.353553 -0.707107
vn 0.612372 -0.353553 -0.707107
vn 0.612373 -0.353553 0.707107
vn 0.612373 -0.353553 0.707107
vn 0.612373 -0.353553 0.707107
vn 0.612373 -0.353553 0.707107
vn 0.500000 0.866025 -0.000000
vn 0.500000 0.866025 -0.000000
vn 0.500000 0.866025 -0.000000
vn 0.500000 0.866025 -0.000000
vn 0.612372 -0.353553 -0.707107
vn 0.612372 -0.353553 -0.707107
vn 0.612372 -0.353553 -0.707107
vn 0.612372 -0.353553 -0.707107
vn 0.612372 -0.353553 0.707107
vn 0.612372 -0.353553 0.707107
vn 0.612372 -0.353553 0.707107
vn 0.612372 -0.353553 0.707107
vn 0.500000 0.866025 -0.000000
vn 0.500000 0.866025 -0.000000
vn 0.500000 0.866025 -0.000000
vn 0.500000 0.866025 -0.000000
vn 0.612372 -0.353553 -0.707107
vn 0.612372 -0.353553 -0.707107
vn 0.612372 -0.353553 -0.707107
vn 0.612372 -0.353553 -0.707107
vn 0.612372 -0.353553 0.707107
vn 0.612372 -0.353553 0.707107
vn 0.612372 -0.353553 0.707107
vn 0.612372 -0.353553 0.707107
vn 0.500000 0.866025 -0.000000
vn 0.500000 0.866025 -0.000000
vn 0.500000 0.866025 -0.000000
vn 0.500000 0.866025 -0.000000
vn 0.612373 -0.353553 -0.707107
vn 0.612373 -0.353553 -0.707107
vn 0.612373 -0.353553 -0.707107
vn 0.612373 -0.353553 -0.707107
vn 0.612372 -0.353553 0.707107
vn 0.612372 -0.353553 0.707107
vn 0.612372 -0.353553 0.707107
vn 0.612372 -0.353553 0.707107
s off
g pCube6
usemtl initialShadingGroup
f 2/2/1 3/3/2 5/5/3 4/4/4
f 4/4/5 5/5/6 7/7/7 6/6/8
f 1/1/9 7/8/10 5/9/11 3/3/12
f 9/10/13 10/11/14 12/12/15 11/13/16
f 11/13/17 12/12/18 14/14/19 13/15/20
f 8/16/21 14/17/22 12/18/23 10/11/24
f 15/19/25 4/20/26 17/21/27 16/22/28
f 16/22/29 17/21/30 19/23/31 18/24/32
f 6/25/33 19/26/34 17/27/35 4/20/36
f 21/28/37 22/29/38 24/30/39 23/31/40
f 23/31/41 24/30/42 26/32/43 25/33/44
f 20/34/45 26/35/46 24/36/47 22/29/48
f 27/37/49 11/38/50 29/39/51 28/40/52
f 28/40/53 29/39/54 31/41/55 30/42/56
f 13/43/57 31/44/58 29/45/59 11/38/60
f 6/46/61 7/47/62 32/48/63 19/49/64
f 19/49/65 32/48/66 28/50/67 33/51/68
f 27/52/69 28/53/70 32/54/71 7/47/72
f 34/55/73 23/56/74 35/57/75 3/58/76
f 3/58/77 35/57/78 36/59/79 1/60/80
f 25/61/81 36/62/82 35/63/83 23/56/84
f 1/64/85 36/65/86 37/66/87 7/67/88
f 7/67/89 37/66/90 11/68/91 27/69/92
f 9/70/93 11/71/94 37/72/95 36/65/96
f 25/73/97 26/74/98 39/75/99 36/76/100
f 36/76/101 39/75/102 10/77/103 9/78/104
f 38/79/105 10/80/106 39/81/107 26/74/108
f 40/82/109 41/83/110 43/84/111 42/85/112
f 42/85/113 43/84/114 23/86/115 34/87/116
f 21/88/117 23/89/118 43/90/119 41/83/120
f 44/91/121 45/92/122 47/93/123 46/94/124
f 46/94/125 47/93/126 4/95/127 15/96/128
f 2/97/129 4/98/130 47/99/131 45/92/132
f 48/100/133 42/101/134 49/102/135 45/103/136
f 45/103/137 49/102/138 3/104/139 2/105/140
f 34/106/141 3/107/142 49/108/143 42/101/144
